<?xml version="1.0" encoding="UTF-8"?>
<svg id="Camada_1" data-name="Camada 1" xmlns="http://www.w3.org/2000/svg" viewBox="0 0 1000 1000">
  <defs>
    <style>
      .cls-1 {
        fill: #9d5932;
      }
    </style>
  </defs>
  <g>
    <path class="cls-1" d="M497.35,722.71c-92.6,0-167.94-99.91-167.94-222.71s75.34-222.71,167.94-222.71,167.94,99.91,167.94,222.71-75.34,222.71-167.94,222.71Zm0-441.02c-90.17,0-163.54,97.93-163.54,218.31s73.37,218.31,163.54,218.31,163.54-97.93,163.54-218.31-73.37-218.31-163.54-218.31Z"/>
    <path class="cls-1" d="M545.26,692.87c-55.57,0-116.68-25.33-165.13-73.79-40.44-40.44-66.17-90.78-72.44-141.75-6.3-51.17,7.74-96.86,39.53-128.66,65.48-65.48,186.78-50.72,270.41,32.91,83.63,83.63,98.39,204.93,32.91,270.41-27.54,27.54-64.95,40.88-105.28,40.88Zm-92.75-380.72c-39.19,0-75.48,12.93-102.18,39.63-30.82,30.82-44.41,75.21-38.28,125.01,6.16,50,31.44,99.43,71.19,139.18,81.91,81.91,200.43,96.68,264.19,32.91,63.76-63.76,49-182.28-32.91-264.19-47.61-47.61-107.6-72.54-162.01-72.54Z"/>
    <path class="cls-1" d="M454.74,692.87c-40.33,0-77.74-13.34-105.28-40.88-65.48-65.48-50.72-186.79,32.91-270.41,40.44-40.44,90.78-66.17,141.75-72.44,51.19-6.31,96.87,7.74,128.65,39.53,31.79,31.79,45.83,77.48,39.54,128.66-6.28,50.97-32,101.31-72.44,141.75-48.45,48.45-109.57,73.79-165.13,73.79Zm92.94-380.81c-7.52,0-15.2,.48-23.02,1.44-50,6.15-99.43,31.44-139.18,71.19-81.91,81.91-96.68,200.43-32.91,264.19,63.76,63.77,182.29,49.01,264.2-32.91,39.75-39.75,65.03-89.18,71.18-139.18,6.13-49.8-7.46-94.2-38.28-125.01-25.98-25.98-61.61-39.72-101.99-39.72Z"/>
  </g>
  <g>
    <path class="cls-1" d="M541.94,564.45c-.85-3.69-1.42-7.64-1.7-11.86-.28-4.22-.42-7.63-.42-10.23v-78.15c-.25-6.23-2.2-11.69-5.86-16.37-3.66-4.68-8.33-8.35-14.02-11-5.69-2.65-11.56-3.98-17.61-3.98h-1.3c-4.96,0-9.84,.88-14.63,2.63-4.79,1.75-9.05,4.26-12.77,7.51-3.72,3.26-6.53,7.18-8.42,11.77-.44,.93-.65,1.86-.65,2.79,0,1.71,.61,3.23,1.84,4.58,1.22,1.35,2.75,2.02,4.58,2.02s3.4-.57,4.6-1.7c1.21-1.13,1.91-2.52,2.09-4.16,0-1.8,.29-3.92,.88-6.37,1.15-4.62,3.26-8.47,6.33-11.54,3.85-3.78,9.09-5.67,15.72-5.67h.93c13.86,0,21.69,10,23.49,30,.37,4.03,.56,8.08,.56,12.14,0,2.08-.03,4.12-.09,6.14l-.05,16.98c-3.72-4.28-8.11-7.69-13.16-10.23-1.8-.93-3.66-1.71-5.58-2.33-4.5-1.52-9.07-2.28-13.72-2.28-5.4,0-10.65,.98-15.77,2.95-5.12,1.97-9.69,4.85-13.72,8.63-2.61,2.42-4.9,5.13-6.88,8.14-3.57,5.52-5.75,11.55-6.56,18.09,0,.03-.02,.05-.05,.05-.22,1.74-.33,3.49-.33,5.26,0,4.9,.81,9.69,2.42,14.37,1.61,4.68,4,8.95,7.16,12.79,3.47,4.31,7.63,7.83,12.47,10.56,3.23,1.83,6.64,3.2,10.23,4.12,3.6,.92,7.24,1.37,10.93,1.37,.14,0,.28,0,.42,0,1.54-.01,3.08-.11,4.61-.29,1.53-.18,3.05-.44,4.55-.78,1.51-.34,3-.77,4.46-1.27,1.47-.51,2.92-1.1,4.34-1.74,1.09-.5,2.14-1.07,3.15-1.71,1.03-.65,2.02-1.38,2.96-2.15,.97-.8,1.88-1.66,2.75-2.57,.89-.94,1.73-1.93,2.51-2.96,.81-1.07,1.55-2.18,2.24-3.32,.22-.36,.41-.73,.62-1.09v3.06l-.05,.05h.05v.51c0,.87,.08,1.72,.23,2.56,1.05,4.87,3.84,8.37,8.37,10.51,1.64,.74,3.55,1.13,5.72,1.16l2.23,.05h3.77c-1.74-.99-3.03-3.33-3.88-7.02Zm-16.82-14.24c-.33,.7-.68,1.4-1.05,2.08-.65,1.19-1.36,2.35-2.14,3.47-.75,1.08-1.56,2.11-2.43,3.09-.84,.95-1.73,1.84-2.69,2.68-.92,.81-1.89,1.56-2.91,2.24-.99,.66-2.03,1.25-3.11,1.77-.31,.15-.62,.29-.94,.43-1.08,.47-2.18,.9-3.29,1.29-1.47,.52-2.96,.97-4.48,1.33-1.5,.36-3.03,.63-4.56,.81-1.52,.18-3.06,.27-4.59,.27-.9,0-1.8-.03-2.7-.09-5.67-1.15-10.4-3.77-14.19-7.86-3.78-4.09-6.62-9.09-8.51-14.98-1.89-5.89-2.84-12.02-2.84-18.37s.98-12.68,2.95-18.68c1.97-6,4.91-11.04,8.84-15.12,3.92-4.08,8.82-6.58,14.68-7.51l1.72-.05c1.08,0,2.17,.05,3.26,.14,8.25,.74,15.54,3.55,21.86,8.42l1.63,1.3c2.14,1.83,4.08,3.86,5.82,6.09,.02,1.43,.03,5.52,.04,12.23-.89-1.57-1.89-3.07-3.01-4.49-8.67-10.99-23.47-15.43-35.99-10.79l.65,1.77c11.76-4.36,25.69-.17,33.86,10.19,8.14,10.32,9.72,26.45,4.12,38.35Z"/>
    <circle class="cls-1" cx="556.09" cy="567.59" r="3.88"/>
  </g>
</svg>