<?xml version="1.0" encoding="UTF-8"?>
<svg id="Camada_1" data-name="Camada 1" xmlns="http://www.w3.org/2000/svg" viewBox="0 0 1000 1000">
  <defs>
    <style>
      .cls-1 {
        fill: #9d5932;
      }
    </style>
  </defs>
  <g>
    <path class="cls-1" d="M179.37,533.03h-13.75c.75-.35,1.24-.93,1.47-1.75,.15-.53,.23-1.11,.23-1.71,0-.32-.04-.83-.12-1.51-.08-.68-.26-1.5-.54-2.45-.28-.95-.54-1.76-.79-2.41l-2.82-6.97h-34.27l-2.37,5.88-.36,.99c-.24,.66-.5,1.48-.76,2.47-.26,.99-.46,2-.6,3.04-.04,.38-.07,.75-.07,1.1,0,.6,.09,1.23,.26,1.89,.17,.66,.61,1.14,1.32,1.43h-9.04c.67,0,1.35-.25,2.02-.74,1.21-.9,2.43-2.38,3.64-4.42,.96-1.63,1.77-3.18,2.42-4.66,.24-.58,7.81-19.33,22.71-56.27h.71l22.36,55.47c.15,.37,.42,.96,.79,1.77,.37,.81,.83,1.72,1.37,2.72s1.15,1.97,1.82,2.89c.67,.93,1.37,1.7,2.11,2.31,.74,.61,1.49,.92,2.25,.92Zm-16.56-17.43l-16.88-41.86-16.88,41.86h33.75Z"/>
    <path class="cls-1" d="M238.08,533.09h-2.75l-44.75-57.98-.02,49.03,.07,1.73c.14,3.05,.56,5.21,1.24,6.48,.21,.36,.45,.6,.73,.74h-4.7c.28-.14,.52-.38,.73-.74,.4-.73,.69-1.71,.88-2.93,.26-1.7,.41-3.54,.43-5.52v-47.85c-.01-.56-.04-1.19-.08-1.89-.15-3.06-.58-5.23-1.28-6.5-.22-.38-.47-.63-.76-.77h2.77l46.87,60.74,.02-51.96c-.08-3.91-.51-6.6-1.31-8.05-.2-.37-.44-.61-.73-.74h4.72c-.28,.13-.52,.37-.73,.74-.4,.73-.69,1.7-.88,2.91-.27,1.71-.41,3.56-.43,5.55l-.03,57.01Z"/>
    <path class="cls-1" d="M309.3,533.03h-13.75c.75-.35,1.24-.93,1.47-1.75,.15-.53,.23-1.11,.23-1.71,0-.32-.04-.83-.12-1.51-.08-.68-.26-1.5-.54-2.45-.28-.95-.54-1.76-.79-2.41l-2.82-6.97h-34.27l-2.37,5.88-.36,.99c-.24,.66-.5,1.48-.76,2.47-.26,.99-.46,2-.6,3.04-.04,.38-.07,.75-.07,1.1,0,.6,.09,1.23,.26,1.89,.17,.66,.61,1.14,1.32,1.43h-9.04c.67,0,1.35-.25,2.02-.74,1.21-.9,2.43-2.38,3.64-4.42,.96-1.63,1.77-3.18,2.42-4.66,.24-.58,7.81-19.33,22.71-56.27h.71l22.36,55.47c.15,.37,.42,.96,.79,1.77,.37,.81,.83,1.72,1.37,2.72s1.15,1.97,1.82,2.89c.67,.93,1.37,1.7,2.11,2.31,.74,.61,1.49,.92,2.25,.92Zm-16.56-17.43l-16.88-41.86-16.88,41.86h33.75Z"/>
    <path class="cls-1" d="M365.13,533.29c-4.35,0-8.54-.88-12.55-2.63-3.84-1.69-7.25-4.07-10.22-7.14-2.97-3.07-5.27-6.6-6.89-10.59-1.69-4.14-2.53-8.46-2.53-12.95s.84-8.8,2.53-12.95c1.62-3.98,3.92-7.51,6.89-10.59,2.97-3.07,6.38-5.45,10.22-7.14,4.02-1.74,8.2-2.61,12.55-2.61s8.52,.87,12.54,2.61c3.84,1.69,7.25,4.07,10.22,7.14,2.97,3.07,5.27,6.6,6.89,10.59,1.69,4.14,2.53,8.46,2.53,12.95s-.84,8.8-2.53,12.95c-1.62,3.99-3.92,7.51-6.89,10.59-2.97,3.07-6.38,5.45-10.22,7.14-4.02,1.75-8.2,2.63-12.54,2.63Zm0-.63c.9,0,1.8-.04,2.7-.13h.02c3.4-.44,6.56-1.58,9.48-3.41,2.92-1.84,5.47-4.22,7.66-7.14s3.9-6.27,5.13-10.02c1.24-3.75,1.85-7.75,1.85-11.99s-.6-8.12-1.8-11.83c-1.2-3.71-2.87-7.03-5.01-9.94-2.14-2.92-4.63-5.3-7.49-7.15s-5.95-3.03-9.3-3.55c-1.07-.12-2.15-.17-3.25-.17-1.18,0-2.35,.06-3.49,.19-3.32,.55-6.4,1.75-9.23,3.61-2.83,1.86-5.31,4.25-7.43,7.16-2.12,2.91-3.78,6.21-4.97,9.9-1.19,3.69-1.79,7.62-1.79,11.78s.61,8.21,1.84,11.95c1.23,3.74,2.93,7.07,5.1,10,2.17,2.93,4.71,5.31,7.61,7.15s6.04,2.99,9.43,3.45h.02c.96,.09,1.93,.14,2.91,.14Z"/>
    <path class="cls-1" d="M453.96,533.03l-48.21-.03c.61-.34,1.06-1.12,1.37-2.36,.3-1.24,.51-2.57,.6-3.99s.15-2.58,.15-3.47v-46.34c0-.87-.05-2.02-.14-3.46-.09-1.44-.29-2.79-.6-4.05-.3-1.26-.76-2.07-1.38-2.41h9.36c-.24,.12-.46,.32-.66,.63-.39,.62-.69,1.49-.91,2.63-.36,1.96-.55,4.15-.55,6.58l.02,47.43c.02,1.32,.14,2.79,.34,4.41s.57,2.89,1.1,3.8l29.63,.02c4.42-.06,7.44-.5,9.08-1.31,.4-.2,.67-.43,.81-.71v2.64Z"/>
    <path class="cls-1" d="M471.77,533.03h-9.37c.61-.34,1.06-1.12,1.37-2.36,.3-1.24,.51-2.57,.6-3.99s.15-2.58,.15-3.47l.02-46.34c0-.87-.05-2.02-.15-3.46-.1-1.44-.3-2.79-.61-4.05-.3-1.26-.76-2.07-1.38-2.41h9.37c-.25,.12-.48,.32-.68,.63-.38,.62-.67,1.49-.89,2.63-.36,1.96-.55,4.15-.56,6.58l.02,47.43c.02,1.01,.1,2.14,.22,3.41,.13,1.27,.34,2.42,.64,3.45,.3,1.03,.72,1.68,1.26,1.97Z"/>
    <path class="cls-1" d="M514.48,533.09h-.73l-25.04-56.46c-.98-2.16-2.1-4.12-3.35-5.88-1.79-2.52-3.51-3.8-5.17-3.85h13.76c-1.13,0-1.69,.75-1.69,2.23,0,1.19,.3,2.69,.89,4.51,.43,1.32,.88,2.52,1.36,3.59l22.01,49.61c14.52-32.73,21.88-49.34,22.08-49.84,.51-1.24,.94-2.46,1.31-3.67,.49-1.66,.73-3.02,.73-4.09,0-.08,0-.3-.02-.66-.01-.36-.15-.73-.41-1.12-.26-.39-.7-.58-1.29-.58h8.79c-.67,0-1.34,.24-2.01,.72-.67,.48-1.31,1.1-1.94,1.86-.62,.76-1.21,1.58-1.75,2.45-.54,.88-1.02,1.72-1.44,2.53-.42,.81-.76,1.49-1.01,2.06l-25.09,56.57Z"/>
    <path class="cls-1" d="M604.39,533.04l-48.23-.03c.61-.33,1.06-1.12,1.37-2.36,.3-1.24,.51-2.57,.61-3.99,.11-1.42,.16-2.58,.16-3.47v-46.34c0-.87-.05-2.02-.15-3.46s-.3-2.79-.61-4.05c-.3-1.26-.76-2.07-1.38-2.41l48.23,.03v2.64c-.14-.27-.41-.51-.81-.72-1.39-.68-3.76-1.09-7.1-1.23-.96-.04-1.76-.07-2.4-.08h-29.21c-.38,.61-.67,1.48-.89,2.61-.36,1.96-.55,4.15-.56,6.58v22.57l22.16,.02c4.28-.08,7.23-.51,8.83-1.29,.4-.21,.67-.45,.81-.72v4.66c-.14-.27-.41-.51-.81-.72-1.39-.68-3.76-1.09-7.1-1.23-.86-.03-7.65-.06-20.37-.08h-3.51l.03,24.23c.02,1.32,.14,2.79,.34,4.41,.2,1.62,.57,2.89,1.1,3.8l29.63,.02c4.41-.06,7.43-.5,9.08-1.31,.4-.2,.67-.43,.81-.71v2.64Z"/>
    <path class="cls-1" d="M661.28,533.03h-6.14l-16.28-23.11h-18.78v14.28c.02,1.01,.1,2.14,.22,3.41,.13,1.27,.34,2.41,.64,3.44,.3,1.02,.72,1.68,1.26,1.97h-9.37c.61-.34,1.06-1.12,1.37-2.37,.3-1.24,.51-2.57,.6-4,.1-1.42,.15-2.58,.15-3.47l.02-46.34c0-.86-.05-2.01-.15-3.45s-.3-2.79-.61-4.05c-.3-1.26-.76-2.06-1.38-2.41l31.04,.02c3.01,0,5.89,.54,8.64,1.62,2.74,1.08,5.19,2.64,7.34,4.68s3.79,4.36,4.93,6.97c1.14,2.61,1.71,5.34,1.71,8.2s-.57,5.61-1.71,8.21c-1.14,2.6-2.78,4.93-4.92,6.98-4.15,3.86-9.1,5.95-14.86,6.26l16.3,23.14Zm-17.47-23.74l.66-.14c2.29-.5,4.39-1.38,6.33-2.64,1.93-1.25,3.62-2.8,5.05-4.64,1.43-1.84,2.56-3.9,3.36-6.19,.81-2.29,1.21-4.7,1.21-7.25s-.42-5.08-1.26-7.41-2.01-4.42-3.51-6.28-3.26-3.41-5.27-4.64c-2.01-1.23-4.2-2.07-6.57-2.51h-22.31c-.38,.62-.67,1.48-.88,2.6-.36,1.96-.55,4.15-.56,6.58l.02,32.53h23.73Z"/>
  </g>
  <g>
    <path class="cls-1" d="M691.64,493.98h9.59v1h-8.4v4.5h7.48v1h-7.48v5.59h-1.19v-12.1Z"/>
    <path class="cls-1" d="M710.48,499.99c0-3.5,2.99-6.36,6.71-6.36s6.66,2.86,6.66,6.36-2.97,6.34-6.66,6.34-6.71-2.83-6.71-6.34Zm12.18,0c0-2.88-2.53-5.21-5.49-5.21s-5.49,2.33-5.49,5.21,2.46,5.21,5.49,5.21,5.49-2.35,5.49-5.21Z"/>
    <path class="cls-1" d="M736.32,495.07h-4.07v-1.09h9.32v1.09h-4.07v11.01h-1.19v-11.01Z"/>
    <path class="cls-1" d="M749.98,499.99c0-3.5,2.99-6.36,6.71-6.36s6.66,2.86,6.66,6.36-2.97,6.34-6.66,6.34-6.71-2.83-6.71-6.34Zm12.18,0c0-2.88-2.53-5.21-5.49-5.21s-5.49,2.33-5.49,5.21,2.46,5.21,5.49,5.21,5.49-2.35,5.49-5.21Z"/>
    <path class="cls-1" d="M773.02,500.12c0-3.94,3.45-6.27,6.56-6.27,1.96,0,3.59,.66,4.78,1.86l-.82,.76c-.98-.89-2.3-1.51-3.95-1.51-2.63,0-5.39,2.08-5.39,5.16s2.72,5.16,5.39,5.16c1.32,0,3.24-.53,4.24-1.93v-3.5h1.15v4.08c-1.19,1.73-3.61,2.44-5.39,2.44-3.53,0-6.56-2.7-6.56-6.25Z"/>
    <path class="cls-1" d="M796.64,493.98h5.35c2.59,0,4.24,1.82,4.24,3.99,0,1.82-1.09,3.32-2.86,3.81l3.17,4.26h-1.4l-3.03-4.08-4.28,.02v4.1h-1.19v-12.1Zm1.19,6.98h4.12c1.67,0,3.11-1.22,3.11-2.99s-1.44-2.97-3.11-2.97h-4.12v5.96Z"/>
    <path class="cls-1" d="M826.08,503.05h-7.73l-1.71,3.03h-1.32l6.89-12.1,6.89,12.1h-1.32l-1.69-3.03Zm-.63-1.04l-3.24-5.79-3.24,5.79h6.48Z"/>
    <path class="cls-1" d="M838.25,493.98h9.59v1h-8.4v4.5h7.48v1h-7.48v5.59h-1.19v-12.1Z"/>
    <path class="cls-1" d="M858.49,493.98h1.19v12.1h-1.19v-12.1Z"/>
    <path class="cls-1" d="M879.82,503.05h-7.73l-1.71,3.03h-1.32l6.89-12.1,6.89,12.1h-1.32l-1.69-3.03Zm-.63-1.04l-3.24-5.79-3.24,5.79h6.48Z"/>
  </g>
</svg>