<?xml version="1.0" encoding="UTF-8"?>
<svg id="Camada_1" data-name="Camada 1" xmlns="http://www.w3.org/2000/svg" xmlns:xlink="http://www.w3.org/1999/xlink" viewBox="0 0 1000 1000">
  <defs>
    <style>
      .cls-1 {
        fill: none;
      }

      .cls-2 {
        fill: #9d5932;
      }

      .cls-3 {
        fill: url(#Novo_padrão_2);
      }
    </style>
    <pattern id="Novo_padrão_2" data-name="Novo padrão 2" x="0" y="0" width="82.5" height="94" patternTransform="translate(1020 -5610)" patternUnits="userSpaceOnUse" viewBox="0 0 82.5 94">
      <g>
        <rect class="cls-1" x="0" width="82.5" height="94"/>
        <path class="cls-2" d="M118.17,94c0-26.09-16-47.31-35.67-47.31s-35.67,21.22-35.67,47.31,16,47.31,35.67,47.31,35.67-21.22,35.67-47.31Zm-.93,0c0,25.57-15.58,46.37-34.74,46.37s-34.74-20.8-34.74-46.37,15.58-46.37,34.74-46.37,34.74,20.8,34.74,46.37Z"/>
        <path class="cls-2" d="M76.92,141c0-26.09-16-47.31-35.67-47.31S5.58,114.91,5.58,141s16,47.31,35.67,47.31,35.67-21.22,35.67-47.31Zm-.93,0c0,25.57-15.58,46.37-34.74,46.37S6.51,166.57,6.51,141s15.58-46.37,34.74-46.37,34.74,20.8,34.74,46.37Z"/>
        <path class="cls-2" d="M35.67,94C35.67,67.91,19.67,46.69,0,46.69s-35.67,21.22-35.67,47.31S-19.67,141.31,0,141.31s35.67-21.22,35.67-47.31Zm-.93,0C34.74,119.57,19.16,140.37,0,140.37s-34.74-20.8-34.74-46.37S-19.16,47.63,0,47.63s34.74,20.8,34.74,46.37Z"/>
        <path class="cls-2" d="M118.17,0c0-26.09-16-47.31-35.67-47.31S46.83-26.09,46.83,0s16,47.31,35.67,47.31S118.17,26.09,118.17,0ZM117.24,0c0,25.57-15.58,46.37-34.74,46.37S47.76,25.57,47.76,0s15.58-46.37,34.74-46.37S117.24-25.57,117.24,0Z"/>
        <path class="cls-2" d="M76.92,47C76.92,20.91,60.92-.31,41.25-.31S5.58,20.91,5.58,47s16,47.31,35.67,47.31,35.67-21.22,35.67-47.31Zm-.93,0c0,25.57-15.58,46.37-34.74,46.37S6.51,72.57,6.51,47,22.09,.63,41.25,.63s34.74,20.8,34.74,46.37Z"/>
        <path class="cls-2" d="M35.67,0C35.67-26.09,19.67-47.31,0-47.31S-35.67-26.09-35.67,0-19.67,47.31,0,47.31,35.67,26.09,35.67,0ZM34.74,0C34.74,25.57,19.16,46.37,0,46.37S-34.74,25.57-34.74,0-19.16-46.37,0-46.37,34.74-25.57,34.74,0Z"/>
        <path class="cls-2" d="M76.92-47c0-26.09-16-47.31-35.67-47.31S5.58-73.09,5.58-47,21.58,.31,41.25,.31s35.67-21.22,35.67-47.31Zm-.93,0C75.99-21.43,60.41-.63,41.25-.63S6.51-21.43,6.51-47s15.58-46.37,34.74-46.37,34.74,20.8,34.74,46.37Z"/>
      </g>
    </pattern>
  </defs>
  <rect class="cls-3" width="1000" height="1000"/>
</svg>